<?xml version="1.0" encoding="utf-8"?>
<svg width="256" height="256" viewBox="0 0 256 256" fill="none" xmlns="http://www.w3.org/2000/svg">
  <g fill="#1D63ED">
    <rect x="36" y="120" width="26" height="22" rx="2"/>
    <rect x="68" y="120" width="26" height="22" rx="2"/>
    <rect x="100" y="120" width="26" height="22" rx="2"/>
    <rect x="132" y="120" width="26" height="22" rx="2"/>
    <rect x="68" y="92" width="26" height="22" rx="2"/>
    <rect x="100" y="92" width="26" height="22" rx="2"/>
    <rect x="132" y="92" width="26" height="22" rx="2"/>
    <rect x="100" y="64" width="26" height="22" rx="2"/>
    <rect x="132" y="64" width="26" height="22" rx="2"/>
    <path d="M236 120.5c-5.7-3.8-18.8-5.2-28.9-3.3-1.3-9.5-6.6-17.8-16.2-25.2l-5.5-3.7-3.7 5.5c-4.7 7.1-7.1 17-6.3 26.5.3 3.4 1.4 9.5 4.9 14.9-3.5 1.9-10.3 4.5-19.4 4.3H20.2c-3.6 16.3.6 37.6 12.8 52.1 11.9 14.1 29.7 21.2 53 21.2 50.4 0 87.7-23.2 105.2-65.5 6.9.1 21.7.1 29.3-14.4.5-.8 2.1-4 2.7-5.2l-3.6-3.4c-1.9-1.3-4.5-3-9.6-4.1z"/>
  </g>
</svg>
